{"title":"Public Pickups - Sunshine 14-05-2012","uid":7480252,"size":1038891256,"categoryP":"porn","categoryS":"other","magnet":"?xt=urn:btih:7b70374f3565cdd7c125e372fd51bacc568a3c2d&amp;dn=Public+Pickups+-+Sunshine+14-05-2012&amp;tr=udp%3A%2F%2Ftracker.openbittorrent.com%3A80&amp;tr=udp%3A%2F%2Fopen.demonii.com%3A1337&amp;tr=udp%3A%2F%2Ftracker.coppersurfer.tk%3A6969&amp;tr=udp%3A%2F%2Fexodus.desync.com%3A6969","seeders":1,"leechers":0,"uploader":"attilad","files":-1,"time":1343412736,"description":"Screens: http://bayimg.com/HAapFaaef\n\nGeneral\nFormat: MPEG-4\nFormat profile: Base Media\nCodec ID: isom\nFile size: 991 MiB\nDuration: 33mn 57s\nOverall bit rate: 4.080 kbps\nWriting application: Lavf54.1.100\n\nVideo\nID: 1\nFormat: AVC\nFormat/Info: Advanced Video Codec\nFormat profile: &lt;a class=&quot;__cf_email__&quot; href=&quot;/cdn-cgi/l/email-protection&quot; data-cfemail=&quot;470f2e202f070b746976&quot;&gt;[email&amp;#160;protected]&lt;/a&gt;&lt;script cf-hash='f9e31' type=&quot;text/javascript&quot;&gt;\n/* &lt;![CDATA[ */!function(){try{var t=&quot;currentScript&quot;in document?document.currentScript:function(){for(var t=document.getElementsByTagName(&quot;script&quot;),e=t.length;e--;)if(t[e].getAttribute(&quot;cf-hash&quot;))return t[e]}();if(t&amp;&amp;t.previousSibling){var e,r,n,i,c=t.previousSibling,a=c.getAttribute(&quot;data-cfemail&quot;);if(a){for(e=&quot;&quot;,r=parseInt(a.substr(0,2),16),n=2;a.length-n;n+=2)i=parseInt(a.substr(n,2),16)^r,e+=String.fromCharCode(i);e=document.createTextNode(e),c.parentNode.replaceChild(e,c)}}}catch(u){}}();/* ]]&gt; */&lt;/script&gt;\nFormat settings, CABAC: Yes\nFormat settings, ReFrames: 5 frames\nCodec ID: avc1\nCodec ID/Info: Advanced Video Coding\nDuration: 33mn 57s\nBit rate: 3 800 Kbps\nWidth: 1 280 pixels\nHeight: 720 pixels\nDisplay aspect ratio: 16:9\nFrame rate mode: Constant\nFrame rate: 29.970 fps\nColor space: YUV\nChroma subsampling: 4:2:0\nBit depth: 8 bits\nScan type: Progressive\nBits/(Pixel*Frame): 0.138\nStream size: 917 MiB (93%)\n\nAudio\nID: 2\nFormat: AAC\nFormat/Info: Advanced Audio Codec\nFormat profile: LC\nCodec ID: 40\nDuration: 33mn 57s\nBit rate mode: Constant\nBit rate: 128 Kbps\nChannel(s): 2 channels\nChannel positions: Front: L R\nSampling rate: 48.0 KHz\nCompression mode: Lossy\nStream size: 31.1 MiB (3%)\nTagged date: UTC 2012-04-10 23:08:20","torrent":{"xt":"urn:btih:7b70374f3565cdd7c125e372fd51bacc568a3c2d","amp;dn":"Public+Pickups+-+Sunshine+14-05-2012","amp;tr":["udp%3A%2F%2Ftracker.openbittorrent.com%3A80","udp%3A%2F%2Fopen.demonii.com%3A1337","udp%3A%2F%2Ftracker.coppersurfer.tk%3A6969","udp%3A%2F%2Fexodus.desync.com%3A6969"],"infoHash":"7b70374f3565cdd7c125e372fd51bacc568a3c2d","infoHashBuffer":{"type":"Buffer","data":[123,112,55,79,53,101,205,215,193,37,227,114,253,81,186,204,86,138,60,45]},"announce":[],"urlList":[]}}